# xmcd
#
# Track frame offsets: 
#        150
#        16270
#        31452
#        43373
#        52326
#        65099
#        74575
#        84398
#        94701
#        104682
#        112539
#        130473
#        136511
#        145345
#        162782
#
# Disc length: 2252 seconds
#
# Revision: 0
# Processed by: cddbd v1.5.1PL0 Copyright (c) Steve Scherf et al.
# Submitted via: ExactAudioCopy v0.95a5
#
DISCID=d708ca0f
DTITLE=Prazec - Davny plany
DYEAR=2001
DGENRE=Country
TTITLE0=Bylinkar Ruah
TTITLE1=Klice
TTITLE2=Bracha
TTITLE3=Spatnej svet
TTITLE4=Trampove
TTITLE5=Nejsme stroje
TTITLE6=Nejvetsi ztrata
TTITLE7=Davny plany
TTITLE8=Svou pravdu hledej sam
TTITLE9=Jarni touhy
TTITLE10=Prochazka Prahou
TTITLE11=Krasne rano
TTITLE12=Rosa pada
TTITLE13=Pravda
TTITLE14=Hej, pockej
EXTD=
EXTT0=
EXTT1=
EXTT2=
EXTT3=
EXTT4=
EXTT5=
EXTT6=
EXTT7=
EXTT8=
EXTT9=
EXTT10=
EXTT11=
EXTT12=
EXTT13=
EXTT14=
PLAYORDER=
